<?xml version="1.0" encoding="UTF-8" standalone="no"?>
<!DOCTYPE svg PUBLIC "-//W3C//DTD SVG 1.1//EN" "http://www.w3.org/Graphics/SVG/1.1/DTD/svg11.dtd">
<!-- Generated by Microsoft Visio, SVG Export mockup.svg Page-1 -->
<svg xmlns="http://www.w3.org/2000/svg" xmlns:xlink="http://www.w3.org/1999/xlink" xmlns:ev="http://www.w3.org/2001/xml-events"
		xmlns:v="http://schemas.microsoft.com/visio/2003/SVGExtensions/" width="11in" height="8.5in" viewBox="0 0 792 612"
		xml:space="preserve" color-interpolation-filters="sRGB" class="st23">
	<v:documentProperties v:langID="1033" v:viewMarkup="false">
		<v:userDefs>
			<v:ud v:nameU="msvNoAutoConnect" v:val="VT0(1):26"/>
		</v:userDefs>
	</v:documentProperties>

	<style type="text/css">
	<![CDATA[
		.st1 {visibility:visible}
		.st2 {fill:#000000;stroke:#000000;stroke-linecap:round;stroke-linejoin:round}
		.st3 {fill:#ffffff;stroke:#a5a5a5;stroke-linecap:round;stroke-linejoin:round;stroke-width:2}
		.st4 {fill:none}
		.st5 {stroke:none;stroke-linecap:round;stroke-linejoin:round;stroke-width:2;visibility:hidden}
		.st6 {fill:#5c5c5c;font-family:Calibri;font-size:1.94872em;font-weight:bold}
		.st7 {baseline-shift:-33.35%;font-size:0.667em}
		.st8 {fill:#f3f3f3;visibility:hidden}
		.st9 {stroke:none;stroke-linecap:butt;stroke-width:1.25}
		.st10 {fill:#6a6a6a;font-family:Calibri;font-size:1.00001em}
		.st11 {stroke:#898989;stroke-linecap:butt;stroke-width:1.25}
		.st12 {fill:#36557e;stroke:none;stroke-linecap:butt;stroke-width:1.25}
		.st13 {fill:#f3f3f3;stroke:none;stroke-linecap:butt;stroke-width:1.25}
		.st14 {fill:#43699c;stroke:none;stroke-linecap:butt;stroke-width:1.25;visibility:hidden}
		.st15 {fill:#36557e;stroke:none;stroke-linecap:round;stroke-linejoin:round;stroke-width:1}
		.st16 {fill:#5c5c5c;font-family:Calibri;font-size:1.46155em;font-weight:bold}
		.st17 {fill:#5c5c5c;font-family:Calibri;font-size:1.00001em;font-weight:bold}
		.st18 {fill:none;stroke:#898989;stroke-linecap:butt;stroke-width:1.25}
		.st19 {fill:#5c5c5c;font-family:Calibri;font-size:0.833336em}
		.st20 {stroke:#a5a5a5;stroke-linecap:round;stroke-linejoin:round;stroke-width:1}
		.st21 {fill:#6a6a6a;font-family:Calibri;font-size:0.833336em}
		.st22 {font-size:1em}
		.st23 {fill:none;fill-rule:evenodd;font-size:12px;overflow:visible;stroke-linecap:square;stroke-miterlimit:3}
	]]>
	</style>

	<g v:mID="0" v:index="1" v:groupContext="foregroundPage">
		<v:userDefs>
			<v:ud v:nameU="msvThemeOrder" v:val="VT0(0):26"/>
		</v:userDefs>
		<title>Page-1</title>
		<v:pageProperties v:drawingScale="1" v:pageScale="1" v:drawingUnits="0" v:shadowOffsetX="9" v:shadowOffsetY="-9"/>
		<g id="group1-1" transform="translate(29.1563,-94.5)" v:mID="1" v:groupContext="group">
			<v:userDefs>
				<v:ud v:nameU="msvSDContainerMargin" v:prompt="" v:val="VT0(0.083333333333333):29"/>
				<v:ud v:nameU="msvStructureType" v:prompt="" v:val="VT4(Container)"/>
				<v:ud v:nameU="visVersion" v:prompt="" v:val="VT0(15):26"/>
				<v:ud v:nameU="msvSDContainerResize" v:val="VT0(0):26"/>
			</v:userDefs>
			<title>Application form</title>
			<g id="shape1-2" v:mID="1" v:groupContext="groupContent">
				<g id="shadow1-3" v:groupContext="shadow" v:shadowOffsetX="1.8" v:shadowOffsetY="-1.8" v:shadowType="1"
						transform="matrix(1,0,0,1,1.8,1.8)" class="st1">
					<rect x="0" y="178.988" width="733.687" height="433.012" rx="4.5" ry="4.5" class="st2"/>
				</g>
				<rect x="0" y="178.988" width="733.687" height="433.012" rx="4.5" ry="4.5" class="st3"/>
			</g>
			<g id="shape2-6" v:mID="2" v:groupContext="shape" transform="translate(0,-383.729)">
				<title>Sheet.2</title>
				<desc>VGChartz – Yearly Global Sales by Franchise</desc>
				<v:userDefs>
					<v:ud v:nameU="msvStructureType" v:prompt="" v:val="VT4(Heading)"/>
					<v:ud v:nameU="msvSDContainerHeadingEdge" v:prompt="" v:val="VT4(Bottom)"/>
					<v:ud v:nameU="HSide" v:prompt="" v:val="VT0(0):26"/>
				</v:userDefs>
				<v:textBlock v:margins="rect(8,8,8,8)" v:verticalAlign="0"/>
				<v:textRect cx="366.844" cy="589.598" width="733.69" height="44.8035"/>
				<rect x="0" y="567.197" width="733.687" height="44.8035" rx="4.5" ry="4.5" class="st4"/>
				<rect x="0" y="567.197" width="733.687" height="44.8035" rx="4.5" ry="4.5" class="st5"/>
				<text x="306.67" y="592.36" class="st6" v:langID="1033"><v:paragraph v:indentLeft="162" v:horizAlign="1"/><v:tabList/><tspan
							class="st7">VGChartz </tspan><tspan class="st7" v:baseFontSize="24">–</tspan><tspan class="st7"
							v:baseFontSize="24"> </tspan><tspan class="st7" v:baseFontSize="24">Yearly Global Sales by Franchise</tspan></text>			</g>
		</g>
		<g id="group3-14" transform="translate(344.25,-169.364)" v:mID="3" v:groupContext="group">
			<v:userDefs>
				<v:ud v:nameU="visVersion" v:val="VT0(15):26"/>
				<v:ud v:nameU="Scale" v:val="VT0(1):26"/>
				<v:ud v:nameU="AntiScale" v:val="VT0(1):26"/>
			</v:userDefs>
			<title>X-Y axis</title>
			<g id="shape4-15" v:mID="4" v:groupContext="shape" transform="translate(-27,0)">
				<title>Sheet.4</title>
				<desc>Global Sales (millions)</desc>
				<v:textBlock v:margins="rect(0,0,0,0)"/>
				<v:textRect cx="9" cy="486" width="252" height="18" transform="rotate(-90)"/>
				<rect x="0" y="360" width="18" height="252" class="st8"/>
				<rect x="0" y="360" width="18" height="252" class="st9"/>
				<text x="-539.39" y="12.6" transform="rotate(-90)" class="st10" v:langID="1033"><v:paragraph v:horizAlign="1"/><v:tabList/>Global Sales (millions)</text>			</g>
			<g id="shape5-19" v:mID="5" v:groupContext="shape">
				<title>Sheet.5</title>
				<path d="M0 360 L0 612 L252 612" class="st11"/>
			</g>
			<g id="shape6-22" v:mID="6" v:groupContext="shape" transform="translate(0,27)">
				<title>Sheet.6</title>
				<desc>Year</desc>
				<v:textBlock v:margins="rect(0,0,0,0)"/>
				<v:textRect cx="126" cy="603" width="252" height="18"/>
				<rect x="0" y="594" width="252" height="18" class="st8"/>
				<rect x="0" y="594" width="252" height="18" class="st9"/>
				<text x="115.12" y="606.6" class="st10" v:langID="1033"><v:paragraph v:horizAlign="1"/><v:tabList/>Year</text>			</g>
		</g>
		<g id="shape7-26" v:mID="7" v:groupContext="shape" transform="translate(-249.75,460.636) rotate(-90)">
			<title>X-axis label</title>
			<desc>1980</desc>
			<v:userDefs>
				<v:ud v:nameU="visVersion" v:val="VT0(15):26"/>
			</v:userDefs>
			<v:textBlock v:margins="rect(4,4,4,4)" v:verticalAlign="0"/>
			<v:textRect cx="-11.2019" cy="594" width="37.05" height="22.4037" transform="rotate(90)"/>
			<path d="M9 594 L18 594" class="st11"/>
			<path d="M18 576 L18 612" class="st11"/>
			<text x="581.84" y="14.8" transform="rotate(90)" class="st10" v:langID="1033"><v:paragraph v:horizAlign="1"/><v:tabList/>1980</text>		</g>
		<g id="shape8-31" v:mID="8" v:groupContext="shape" transform="translate(-15.75,460.636) rotate(-90)">
			<title>X-axis label.8</title>
			<desc>2016</desc>
			<v:userDefs>
				<v:ud v:nameU="visVersion" v:val="VT0(15):26"/>
			</v:userDefs>
			<v:textBlock v:margins="rect(4,4,4,4)" v:verticalAlign="0"/>
			<v:textRect cx="-11.2019" cy="594" width="37.05" height="22.4037" transform="rotate(90)"/>
			<path d="M9 594 L18 594" class="st11"/>
			<path d="M18 576 L18 612" class="st11"/>
			<text x="581.84" y="14.8" transform="rotate(90)" class="st10" v:langID="1033"><v:paragraph v:horizAlign="1"/><v:tabList/>2016</text>		</g>
		<g id="shape9-36" v:mID="9" v:groupContext="shape" transform="translate(326.25,-385.364)">
			<title>Y-axis label</title>
			<desc>86</desc>
			<v:userDefs>
				<v:ud v:nameU="visVersion" v:val="VT0(15):26"/>
			</v:userDefs>
			<v:textBlock v:margins="rect(4,4,4,4)"/>
			<v:textRect cx="-12.4402" cy="594" width="24.89" height="22.4037"/>
			<path d="M9 594 L18 594" class="st11"/>
			<path d="M18 576 L18 612" class="st11"/>
			<text x="-16.16" y="597.6" class="st10" v:langID="1033"><v:paragraph v:horizAlign="2"/><v:tabList/>86</text>		</g>
		<g id="group16-41" transform="translate(362.25,-209.864)" v:mID="16" v:groupContext="group">
			<v:userDefs>
				<v:ud v:nameU="visVersion" v:val="VT0(15):26"/>
			</v:userDefs>
			<title>Data point</title>
			<g id="shape17-42" v:mID="17" v:groupContext="shape">
				<title>Sheet.17</title>
				<path d="M0 607.5 A4.5 4.5 0 1 1 9 607.5 A4.5 4.5 0 0 1 0 607.5 Z" class="st12"/>
			</g>
			<g id="shape18-44" v:mID="18" v:groupContext="shape" transform="translate(1.35,-1.35)">
				<title>Sheet.18</title>
				<path d="M0 608.85 A3.15 3.15 0 1 1 6.3 608.85 A3.15 3.15 0 0 1 0 608.85 Z" class="st13"/>
			</g>
			<g id="shape19-46" v:mID="19" v:groupContext="shape" transform="translate(9,0)">
				<title>Sheet.19</title>
				<rect x="0" y="603" width="11.88" height="9" class="st14"/>
			</g>
		</g>
		<g id="group20-48" transform="translate(456.75,-232.364)" v:mID="20" v:groupContext="group">
			<v:userDefs>
				<v:ud v:nameU="visVersion" v:val="VT0(15):26"/>
			</v:userDefs>
			<title>Data point.20</title>
			<g id="shape21-49" v:mID="21" v:groupContext="shape">
				<title>Sheet.21</title>
				<path d="M0 607.5 A4.5 4.5 0 1 1 9 607.5 A4.5 4.5 0 0 1 0 607.5 Z" class="st12"/>
			</g>
			<g id="shape22-51" v:mID="22" v:groupContext="shape" transform="translate(1.35,-1.35)">
				<title>Sheet.22</title>
				<path d="M0 608.85 A3.15 3.15 0 1 1 6.3 608.85 A3.15 3.15 0 0 1 0 608.85 Z" class="st13"/>
			</g>
			<g id="shape23-53" v:mID="23" v:groupContext="shape" transform="translate(9,0)">
				<title>Sheet.23</title>
				<rect x="0" y="603" width="11.88" height="9" class="st14"/>
			</g>
		</g>
		<g id="group24-55" transform="translate(519.75,-340.364)" v:mID="24" v:groupContext="group">
			<v:userDefs>
				<v:ud v:nameU="visVersion" v:val="VT0(15):26"/>
			</v:userDefs>
			<title>Data point.24</title>
			<g id="shape25-56" v:mID="25" v:groupContext="shape">
				<title>Sheet.25</title>
				<path d="M0 607.5 A4.5 4.5 0 1 1 9 607.5 A4.5 4.5 0 0 1 0 607.5 Z" class="st12"/>
			</g>
			<g id="shape26-58" v:mID="26" v:groupContext="shape" transform="translate(1.35,-1.35)">
				<title>Sheet.26</title>
				<path d="M0 608.85 A3.15 3.15 0 1 1 6.3 608.85 A3.15 3.15 0 0 1 0 608.85 Z" class="st13"/>
			</g>
			<g id="shape27-60" v:mID="27" v:groupContext="shape" transform="translate(9,0)">
				<title>Sheet.27</title>
				<rect x="0" y="603" width="11.88" height="9" class="st14"/>
			</g>
		</g>
		<g id="group28-62" transform="translate(564.75,-232.364)" v:mID="28" v:groupContext="group">
			<v:userDefs>
				<v:ud v:nameU="visVersion" v:val="VT0(15):26"/>
			</v:userDefs>
			<title>Data point.28</title>
			<g id="shape29-63" v:mID="29" v:groupContext="shape">
				<title>Sheet.29</title>
				<path d="M0 607.5 A4.5 4.5 0 1 1 9 607.5 A4.5 4.5 0 0 1 0 607.5 Z" class="st12"/>
			</g>
			<g id="shape30-65" v:mID="30" v:groupContext="shape" transform="translate(1.35,-1.35)">
				<title>Sheet.30</title>
				<path d="M0 608.85 A3.15 3.15 0 1 1 6.3 608.85 A3.15 3.15 0 0 1 0 608.85 Z" class="st13"/>
			</g>
			<g id="shape31-67" v:mID="31" v:groupContext="shape" transform="translate(9,0)">
				<title>Sheet.31</title>
				<rect x="0" y="603" width="11.88" height="9" class="st14"/>
			</g>
		</g>
		<g id="group32-69" transform="translate(402.75,-254.864)" v:mID="32" v:groupContext="group">
			<v:userDefs>
				<v:ud v:nameU="visVersion" v:val="VT0(15):26"/>
			</v:userDefs>
			<title>Data point.32</title>
			<g id="shape33-70" v:mID="33" v:groupContext="shape">
				<title>Sheet.33</title>
				<path d="M0 607.5 A4.5 4.5 0 1 1 9 607.5 A4.5 4.5 0 0 1 0 607.5 Z" class="st12"/>
			</g>
			<g id="shape34-72" v:mID="34" v:groupContext="shape" transform="translate(1.35,-1.35)">
				<title>Sheet.34</title>
				<path d="M0 608.85 A3.15 3.15 0 1 1 6.3 608.85 A3.15 3.15 0 0 1 0 608.85 Z" class="st13"/>
			</g>
			<g id="shape35-74" v:mID="35" v:groupContext="shape" transform="translate(9,0)">
				<title>Sheet.35</title>
				<rect x="0" y="603" width="11.88" height="9" class="st14"/>
			</g>
		</g>
		<g id="shape36-76" v:mID="36" v:groupContext="shape" transform="translate(-86.8081,-10.5666) rotate(-48.0128)">
			<title>Graph line</title>
			<v:userDefs>
				<v:ud v:nameU="visVersion" v:val="VT0(15):26"/>
			</v:userDefs>
			<path d="M0 612 L60.54 612 A1.8 1.8 -180 1 0 60.54 608.4 L0 608.4 A1.8 1.8 -180 1 0 0 612 Z" class="st15"/>
		</g>
		<g id="shape37-78" v:mID="37" v:groupContext="shape" transform="translate(641.942,-210.626) rotate(22.6199)">
			<title>Graph line.37</title>
			<v:userDefs>
				<v:ud v:nameU="visVersion" v:val="VT0(15):26"/>
			</v:userDefs>
			<path d="M0 612 L58.5 612 A1.8 1.8 -180 1 0 58.5 608.4 L0 608.4 A1.8 1.8 -180 1 0 0 612 Z" class="st15"/>
		</g>
		<g id="shape38-80" v:mID="38" v:groupContext="shape" transform="translate(-65.8279,67.6736) rotate(-59.7436)">
			<title>Graph line.38</title>
			<v:userDefs>
				<v:ud v:nameU="visVersion" v:val="VT0(15):26"/>
			</v:userDefs>
			<path d="M0 612 L125.03 612 A1.8 1.8 -180 0 0 125.03 608.4 L0 608.4 A1.8 1.8 -180 1 0 0 612 Z" class="st15"/>
		</g>
		<g id="shape39-82" v:mID="39" v:groupContext="shape" transform="translate(1087.51,32.4434) rotate(67.3801)">
			<title>Graph line.39</title>
			<v:userDefs>
				<v:ud v:nameU="visVersion" v:val="VT0(15):26"/>
			</v:userDefs>
			<path d="M0 612 L117 612 A1.8 1.8 -180 0 0 117 608.4 L0 608.4 A1.8 1.8 -180 1 0 0 612 Z" class="st15"/>
		</g>
		<g id="shape40-84" v:mID="40" v:groupContext="shape" transform="translate(326.25,-151.364)">
			<title>Y-axis label.40</title>
			<desc>0</desc>
			<v:userDefs>
				<v:ud v:nameU="visVersion" v:val="VT0(15):26"/>
			</v:userDefs>
			<v:textBlock v:margins="rect(4,4,4,4)"/>
			<v:textRect cx="-9.39922" cy="594" width="18.8" height="22.4037"/>
			<path d="M9 594 L18 594" class="st11"/>
			<path d="M18 576 L18 612" class="st11"/>
			<text x="-10.08" y="597.6" class="st10" v:langID="1033"><v:paragraph v:horizAlign="2"/><v:tabList/>0</text>		</g>
		<g id="shape41-89" v:mID="41" v:groupContext="shape" transform="translate(35.1563,-423)">
			<title>Application form.2</title>
			<desc>Franchise Name</desc>
			<v:userDefs>
				<v:ud v:nameU="msvStructureType" v:prompt="" v:val="VT4(Heading)"/>
				<v:ud v:nameU="msvSDContainerHeadingEdge" v:prompt="" v:val="VT4(Bottom)"/>
				<v:ud v:nameU="HSide" v:prompt="" v:val="VT0(0):26"/>
			</v:userDefs>
			<v:textBlock v:margins="rect(8,8,8,8)" v:verticalAlign="0"/>
			<v:textRect cx="360.844" cy="593.198" width="721.69" height="37.6036"/>
			<rect x="0" y="574.396" width="721.688" height="37.6036" rx="4.5" ry="4.5" class="st4"/>
			<rect x="0" y="574.396" width="721.688" height="37.6036" rx="4.5" ry="4.5" class="st5"/>
			<text x="393.99" y="595.27" class="st16" v:langID="1033"><v:paragraph v:indentLeft="144" v:horizAlign="1"/><v:tabList/><tspan
						class="st7">Franchise Name</tspan></text>		</g>
		<g id="shape42-94" v:mID="42" v:groupContext="shape" transform="translate(47.4545,-468)">
			<title>Page element</title>
			<desc>Select Franchise:</desc>
			<v:userDefs>
				<v:ud v:nameU="visVersion" v:prompt="" v:val="VT0(15):26"/>
			</v:userDefs>
			<v:textBlock v:margins="rect(4,4,4,4)"/>
			<v:textRect cx="77.5227" cy="594" width="155.05" height="36"/>
			<rect x="0" y="576" width="155.045" height="36" class="st3"/>
			<text x="35.88" y="597.6" class="st17" v:langID="1033"><v:paragraph v:horizAlign="1"/><v:tabList/>Select Franchise:</text>		</g>
		<g id="shape43-97" v:mID="43" v:groupContext="shape" transform="translate(35.1563,-104.625)">
			<title>Single line frame</title>
			<v:userDefs>
				<v:ud v:nameU="visVersion" v:val="VT0(15):26"/>
			</v:userDefs>
			<rect x="0" y="200.25" width="185.344" height="411.75" class="st18"/>
		</g>
		<g id="shape44-99" v:mID="44" v:groupContext="shape" transform="translate(66.4773,-426.375)">
			<title>Rounded Rectangle</title>
			<desc>Assassin’s Creed</desc>
			<v:userDefs>
				<v:ud v:nameU="CTypeTopLeftSnip" v:prompt="" v:val="VT0(0):5"/>
				<v:ud v:nameU="CTypeTopRightSnip" v:prompt="" v:val="VT0(0):5"/>
				<v:ud v:nameU="CTypeBotLeftSnip" v:prompt="" v:val="VT0(0):5"/>
				<v:ud v:nameU="CTypeBotRightSnip" v:prompt="" v:val="VT0(0):5"/>
				<v:ud v:nameU="CornerLockHoriz" v:prompt="" v:val="VT0(1):5"/>
				<v:ud v:nameU="CornerLockVert" v:prompt="" v:val="VT0(1):5"/>
				<v:ud v:nameU="CornerLockDiag" v:prompt="" v:val="VT0(0):5"/>
				<v:ud v:nameU="TopLeftOffset" v:prompt="" v:val="VT0(0.15):1"/>
				<v:ud v:nameU="TopRightOffset" v:prompt="" v:val="VT0(0.15):1"/>
				<v:ud v:nameU="BotLeftOffset" v:prompt="" v:val="VT0(0.15):1"/>
				<v:ud v:nameU="BotRightOffset" v:prompt="" v:val="VT0(0.15):1"/>
				<v:ud v:nameU="visVersion" v:prompt="" v:val="VT0(15):26"/>
				<v:ud v:nameU="TopLeftOffset" v:prompt="" v:val="VT0(0.1625):1"/>
				<v:ud v:nameU="TopRightOffset" v:prompt="" v:val="VT0(0.1625):1"/>
				<v:ud v:nameU="BotLeftOffset" v:prompt="" v:val="VT0(0.1625):1"/>
				<v:ud v:nameU="BotRightOffset" v:prompt="" v:val="VT0(0.1625):1"/>
			</v:userDefs>
			<v:textBlock v:margins="rect(4,4,4,4)"/>
			<v:textRect cx="58.5" cy="599.625" width="117" height="24.75"/>
			<path d="M11.7 612 L105.3 612 A11.6998 11.6998 -180 0 0 117 600.3 L117 598.95 A11.6998 11.6998 -180 0 0 105.3 587.25
						 L11.7 587.25 A11.6998 11.6998 -180 0 0 -0 598.95 L0 600.3 A11.6998 11.6998 -180 0 0 11.7 612 Z"
					class="st3"/>
			<text x="25.27" y="602.63" class="st19" v:langID="1033"><v:paragraph v:horizAlign="1"/><v:tabList/>Assassin’s Creed</text>		</g>
		<g id="shape45-102" v:mID="45" v:groupContext="shape" transform="translate(66.4773,-388.828)">
			<title>Rounded Rectangle.45</title>
			<desc>Bioshock</desc>
			<v:userDefs>
				<v:ud v:nameU="CTypeTopLeftSnip" v:prompt="" v:val="VT0(0):5"/>
				<v:ud v:nameU="CTypeTopRightSnip" v:prompt="" v:val="VT0(0):5"/>
				<v:ud v:nameU="CTypeBotLeftSnip" v:prompt="" v:val="VT0(0):5"/>
				<v:ud v:nameU="CTypeBotRightSnip" v:prompt="" v:val="VT0(0):5"/>
				<v:ud v:nameU="CornerLockHoriz" v:prompt="" v:val="VT0(1):5"/>
				<v:ud v:nameU="CornerLockVert" v:prompt="" v:val="VT0(1):5"/>
				<v:ud v:nameU="CornerLockDiag" v:prompt="" v:val="VT0(0):5"/>
				<v:ud v:nameU="TopLeftOffset" v:prompt="" v:val="VT0(0.15):1"/>
				<v:ud v:nameU="TopRightOffset" v:prompt="" v:val="VT0(0.15):1"/>
				<v:ud v:nameU="BotLeftOffset" v:prompt="" v:val="VT0(0.15):1"/>
				<v:ud v:nameU="BotRightOffset" v:prompt="" v:val="VT0(0.15):1"/>
				<v:ud v:nameU="visVersion" v:prompt="" v:val="VT0(15):26"/>
				<v:ud v:nameU="TopLeftOffset" v:prompt="" v:val="VT0(0.1625):1"/>
				<v:ud v:nameU="TopRightOffset" v:prompt="" v:val="VT0(0.1625):1"/>
				<v:ud v:nameU="BotLeftOffset" v:prompt="" v:val="VT0(0.1625):1"/>
				<v:ud v:nameU="BotRightOffset" v:prompt="" v:val="VT0(0.1625):1"/>
			</v:userDefs>
			<v:textBlock v:margins="rect(4,4,4,4)"/>
			<v:textRect cx="58.5" cy="599.625" width="117" height="24.75"/>
			<path d="M11.7 612 L105.3 612 A11.6998 11.6998 -180 0 0 117 600.3 L117 598.95 A11.6998 11.6998 -180 0 0 105.3 587.25
						 L11.7 587.25 A11.6998 11.6998 -180 0 0 -0 598.95 L0 600.3 A11.6998 11.6998 -180 0 0 11.7 612 Z"
					class="st3"/>
			<text x="40.39" y="602.63" class="st19" v:langID="1033"><v:paragraph v:horizAlign="1"/><v:tabList/>Bioshock</text>		</g>
		<g id="shape46-105" v:mID="46" v:groupContext="shape" transform="translate(66.4773,-351.281)">
			<title>Rounded Rectangle.46</title>
			<desc>Call of Duty</desc>
			<v:userDefs>
				<v:ud v:nameU="CTypeTopLeftSnip" v:prompt="" v:val="VT0(0):5"/>
				<v:ud v:nameU="CTypeTopRightSnip" v:prompt="" v:val="VT0(0):5"/>
				<v:ud v:nameU="CTypeBotLeftSnip" v:prompt="" v:val="VT0(0):5"/>
				<v:ud v:nameU="CTypeBotRightSnip" v:prompt="" v:val="VT0(0):5"/>
				<v:ud v:nameU="CornerLockHoriz" v:prompt="" v:val="VT0(1):5"/>
				<v:ud v:nameU="CornerLockVert" v:prompt="" v:val="VT0(1):5"/>
				<v:ud v:nameU="CornerLockDiag" v:prompt="" v:val="VT0(0):5"/>
				<v:ud v:nameU="TopLeftOffset" v:prompt="" v:val="VT0(0.15):1"/>
				<v:ud v:nameU="TopRightOffset" v:prompt="" v:val="VT0(0.15):1"/>
				<v:ud v:nameU="BotLeftOffset" v:prompt="" v:val="VT0(0.15):1"/>
				<v:ud v:nameU="BotRightOffset" v:prompt="" v:val="VT0(0.15):1"/>
				<v:ud v:nameU="visVersion" v:prompt="" v:val="VT0(15):26"/>
				<v:ud v:nameU="TopLeftOffset" v:prompt="" v:val="VT0(0.1625):1"/>
				<v:ud v:nameU="TopRightOffset" v:prompt="" v:val="VT0(0.1625):1"/>
				<v:ud v:nameU="BotLeftOffset" v:prompt="" v:val="VT0(0.1625):1"/>
				<v:ud v:nameU="BotRightOffset" v:prompt="" v:val="VT0(0.1625):1"/>
			</v:userDefs>
			<v:textBlock v:margins="rect(4,4,4,4)"/>
			<v:textRect cx="58.5" cy="599.625" width="117" height="24.75"/>
			<path d="M11.7 612 L105.3 612 A11.6998 11.6998 -180 0 0 117 600.3 L117 598.95 A11.6998 11.6998 -180 0 0 105.3 587.25
						 L11.7 587.25 A11.6998 11.6998 -180 0 0 -0 598.95 L0 600.3 A11.6998 11.6998 -180 0 0 11.7 612 Z"
					class="st3"/>
			<text x="35.08" y="602.63" class="st19" v:langID="1033"><v:paragraph v:horizAlign="1"/><v:tabList/>Call of Duty</text>		</g>
		<g id="shape47-108" v:mID="47" v:groupContext="shape" transform="translate(66.4773,-313.734)">
			<title>Rounded Rectangle.47</title>
			<desc>Fallout</desc>
			<v:userDefs>
				<v:ud v:nameU="CTypeTopLeftSnip" v:prompt="" v:val="VT0(0):5"/>
				<v:ud v:nameU="CTypeTopRightSnip" v:prompt="" v:val="VT0(0):5"/>
				<v:ud v:nameU="CTypeBotLeftSnip" v:prompt="" v:val="VT0(0):5"/>
				<v:ud v:nameU="CTypeBotRightSnip" v:prompt="" v:val="VT0(0):5"/>
				<v:ud v:nameU="CornerLockHoriz" v:prompt="" v:val="VT0(1):5"/>
				<v:ud v:nameU="CornerLockVert" v:prompt="" v:val="VT0(1):5"/>
				<v:ud v:nameU="CornerLockDiag" v:prompt="" v:val="VT0(0):5"/>
				<v:ud v:nameU="TopLeftOffset" v:prompt="" v:val="VT0(0.15):1"/>
				<v:ud v:nameU="TopRightOffset" v:prompt="" v:val="VT0(0.15):1"/>
				<v:ud v:nameU="BotLeftOffset" v:prompt="" v:val="VT0(0.15):1"/>
				<v:ud v:nameU="BotRightOffset" v:prompt="" v:val="VT0(0.15):1"/>
				<v:ud v:nameU="visVersion" v:prompt="" v:val="VT0(15):26"/>
				<v:ud v:nameU="TopLeftOffset" v:prompt="" v:val="VT0(0.1625):1"/>
				<v:ud v:nameU="TopRightOffset" v:prompt="" v:val="VT0(0.1625):1"/>
				<v:ud v:nameU="BotLeftOffset" v:prompt="" v:val="VT0(0.1625):1"/>
				<v:ud v:nameU="BotRightOffset" v:prompt="" v:val="VT0(0.1625):1"/>
			</v:userDefs>
			<v:textBlock v:margins="rect(4,4,4,4)"/>
			<v:textRect cx="58.5" cy="599.625" width="117" height="24.75"/>
			<path d="M11.7 612 L105.3 612 A11.6998 11.6998 -180 0 0 117 600.3 L117 598.95 A11.6998 11.6998 -180 0 0 105.3 587.25
						 L11.7 587.25 A11.6998 11.6998 -180 0 0 -0 598.95 L0 600.3 A11.6998 11.6998 -180 0 0 11.7 612 Z"
					class="st3"/>
			<text x="44.57" y="602.63" class="st19" v:langID="1033"><v:paragraph v:horizAlign="1"/><v:tabList/>Fallout</text>		</g>
		<g id="shape48-111" v:mID="48" v:groupContext="shape" transform="translate(66.4773,-276.188)">
			<title>Rounded Rectangle.48</title>
			<desc>Grand Theft Auto</desc>
			<v:userDefs>
				<v:ud v:nameU="CTypeTopLeftSnip" v:prompt="" v:val="VT0(0):5"/>
				<v:ud v:nameU="CTypeTopRightSnip" v:prompt="" v:val="VT0(0):5"/>
				<v:ud v:nameU="CTypeBotLeftSnip" v:prompt="" v:val="VT0(0):5"/>
				<v:ud v:nameU="CTypeBotRightSnip" v:prompt="" v:val="VT0(0):5"/>
				<v:ud v:nameU="CornerLockHoriz" v:prompt="" v:val="VT0(1):5"/>
				<v:ud v:nameU="CornerLockVert" v:prompt="" v:val="VT0(1):5"/>
				<v:ud v:nameU="CornerLockDiag" v:prompt="" v:val="VT0(0):5"/>
				<v:ud v:nameU="TopLeftOffset" v:prompt="" v:val="VT0(0.15):1"/>
				<v:ud v:nameU="TopRightOffset" v:prompt="" v:val="VT0(0.15):1"/>
				<v:ud v:nameU="BotLeftOffset" v:prompt="" v:val="VT0(0.15):1"/>
				<v:ud v:nameU="BotRightOffset" v:prompt="" v:val="VT0(0.15):1"/>
				<v:ud v:nameU="visVersion" v:prompt="" v:val="VT0(15):26"/>
				<v:ud v:nameU="TopLeftOffset" v:prompt="" v:val="VT0(0.1625):1"/>
				<v:ud v:nameU="TopRightOffset" v:prompt="" v:val="VT0(0.1625):1"/>
				<v:ud v:nameU="BotLeftOffset" v:prompt="" v:val="VT0(0.1625):1"/>
				<v:ud v:nameU="BotRightOffset" v:prompt="" v:val="VT0(0.1625):1"/>
			</v:userDefs>
			<v:textBlock v:margins="rect(4,4,4,4)"/>
			<v:textRect cx="58.5" cy="599.625" width="117" height="24.75"/>
			<path d="M11.7 612 L105.3 612 A11.6998 11.6998 -180 0 0 117 600.3 L117 598.95 A11.6998 11.6998 -180 0 0 105.3 587.25
						 L11.7 587.25 A11.6998 11.6998 -180 0 0 -0 598.95 L0 600.3 A11.6998 11.6998 -180 0 0 11.7 612 Z"
					class="st3"/>
			<text x="23.11" y="602.63" class="st19" v:langID="1033"><v:paragraph v:horizAlign="1"/><v:tabList/>Grand Theft Auto</text>		</g>
		<g id="shape49-114" v:mID="49" v:groupContext="shape" transform="translate(66.4773,-201.094)">
			<title>Rounded Rectangle.49</title>
			<desc>Mario Brothers</desc>
			<v:userDefs>
				<v:ud v:nameU="CTypeTopLeftSnip" v:prompt="" v:val="VT0(0):5"/>
				<v:ud v:nameU="CTypeTopRightSnip" v:prompt="" v:val="VT0(0):5"/>
				<v:ud v:nameU="CTypeBotLeftSnip" v:prompt="" v:val="VT0(0):5"/>
				<v:ud v:nameU="CTypeBotRightSnip" v:prompt="" v:val="VT0(0):5"/>
				<v:ud v:nameU="CornerLockHoriz" v:prompt="" v:val="VT0(1):5"/>
				<v:ud v:nameU="CornerLockVert" v:prompt="" v:val="VT0(1):5"/>
				<v:ud v:nameU="CornerLockDiag" v:prompt="" v:val="VT0(0):5"/>
				<v:ud v:nameU="TopLeftOffset" v:prompt="" v:val="VT0(0.15):1"/>
				<v:ud v:nameU="TopRightOffset" v:prompt="" v:val="VT0(0.15):1"/>
				<v:ud v:nameU="BotLeftOffset" v:prompt="" v:val="VT0(0.15):1"/>
				<v:ud v:nameU="BotRightOffset" v:prompt="" v:val="VT0(0.15):1"/>
				<v:ud v:nameU="visVersion" v:prompt="" v:val="VT0(15):26"/>
				<v:ud v:nameU="TopLeftOffset" v:prompt="" v:val="VT0(0.1625):1"/>
				<v:ud v:nameU="TopRightOffset" v:prompt="" v:val="VT0(0.1625):1"/>
				<v:ud v:nameU="BotLeftOffset" v:prompt="" v:val="VT0(0.1625):1"/>
				<v:ud v:nameU="BotRightOffset" v:prompt="" v:val="VT0(0.1625):1"/>
			</v:userDefs>
			<v:textBlock v:margins="rect(4,4,4,4)"/>
			<v:textRect cx="58.5" cy="599.625" width="117" height="24.75"/>
			<path d="M11.7 612 L105.3 612 A11.6998 11.6998 -180 0 0 117 600.3 L117 598.95 A11.6998 11.6998 -180 0 0 105.3 587.25
						 L11.7 587.25 A11.6998 11.6998 -180 0 0 -0 598.95 L0 600.3 A11.6998 11.6998 -180 0 0 11.7 612 Z"
					class="st3"/>
			<text x="27.58" y="602.63" class="st19" v:langID="1033"><v:paragraph v:horizAlign="1"/><v:tabList/>Mario Brothers</text>		</g>
		<g id="shape50-117" v:mID="50" v:groupContext="shape" transform="translate(66.4773,-163.547)">
			<title>Rounded Rectangle.50</title>
			<desc>Pokemon</desc>
			<v:userDefs>
				<v:ud v:nameU="CTypeTopLeftSnip" v:prompt="" v:val="VT0(0):5"/>
				<v:ud v:nameU="CTypeTopRightSnip" v:prompt="" v:val="VT0(0):5"/>
				<v:ud v:nameU="CTypeBotLeftSnip" v:prompt="" v:val="VT0(0):5"/>
				<v:ud v:nameU="CTypeBotRightSnip" v:prompt="" v:val="VT0(0):5"/>
				<v:ud v:nameU="CornerLockHoriz" v:prompt="" v:val="VT0(1):5"/>
				<v:ud v:nameU="CornerLockVert" v:prompt="" v:val="VT0(1):5"/>
				<v:ud v:nameU="CornerLockDiag" v:prompt="" v:val="VT0(0):5"/>
				<v:ud v:nameU="TopLeftOffset" v:prompt="" v:val="VT0(0.15):1"/>
				<v:ud v:nameU="TopRightOffset" v:prompt="" v:val="VT0(0.15):1"/>
				<v:ud v:nameU="BotLeftOffset" v:prompt="" v:val="VT0(0.15):1"/>
				<v:ud v:nameU="BotRightOffset" v:prompt="" v:val="VT0(0.15):1"/>
				<v:ud v:nameU="visVersion" v:prompt="" v:val="VT0(15):26"/>
				<v:ud v:nameU="TopLeftOffset" v:prompt="" v:val="VT0(0.1625):1"/>
				<v:ud v:nameU="TopRightOffset" v:prompt="" v:val="VT0(0.1625):1"/>
				<v:ud v:nameU="BotLeftOffset" v:prompt="" v:val="VT0(0.1625):1"/>
				<v:ud v:nameU="BotRightOffset" v:prompt="" v:val="VT0(0.1625):1"/>
			</v:userDefs>
			<v:textBlock v:margins="rect(4,4,4,4)"/>
			<v:textRect cx="58.5" cy="599.625" width="117" height="24.75"/>
			<path d="M11.7 612 L105.3 612 A11.6998 11.6998 -180 0 0 117 600.3 L117 598.95 A11.6998 11.6998 -180 0 0 105.3 587.25
						 L11.7 587.25 A11.6998 11.6998 -180 0 0 -0 598.95 L0 600.3 A11.6998 11.6998 -180 0 0 11.7 612 Z"
					class="st3"/>
			<text x="39.26" y="602.63" class="st19" v:langID="1033"><v:paragraph v:horizAlign="1"/><v:tabList/>Pokemon</text>		</g>
		<g id="shape51-120" v:mID="51" v:groupContext="shape" transform="translate(66.4773,-126)">
			<title>Rounded Rectangle.51</title>
			<desc>Zelda</desc>
			<v:userDefs>
				<v:ud v:nameU="CTypeTopLeftSnip" v:prompt="" v:val="VT0(0):5"/>
				<v:ud v:nameU="CTypeTopRightSnip" v:prompt="" v:val="VT0(0):5"/>
				<v:ud v:nameU="CTypeBotLeftSnip" v:prompt="" v:val="VT0(0):5"/>
				<v:ud v:nameU="CTypeBotRightSnip" v:prompt="" v:val="VT0(0):5"/>
				<v:ud v:nameU="CornerLockHoriz" v:prompt="" v:val="VT0(1):5"/>
				<v:ud v:nameU="CornerLockVert" v:prompt="" v:val="VT0(1):5"/>
				<v:ud v:nameU="CornerLockDiag" v:prompt="" v:val="VT0(0):5"/>
				<v:ud v:nameU="TopLeftOffset" v:prompt="" v:val="VT0(0.15):1"/>
				<v:ud v:nameU="TopRightOffset" v:prompt="" v:val="VT0(0.15):1"/>
				<v:ud v:nameU="BotLeftOffset" v:prompt="" v:val="VT0(0.15):1"/>
				<v:ud v:nameU="BotRightOffset" v:prompt="" v:val="VT0(0.15):1"/>
				<v:ud v:nameU="visVersion" v:prompt="" v:val="VT0(15):26"/>
				<v:ud v:nameU="TopLeftOffset" v:prompt="" v:val="VT0(0.1625):1"/>
				<v:ud v:nameU="TopRightOffset" v:prompt="" v:val="VT0(0.1625):1"/>
				<v:ud v:nameU="BotLeftOffset" v:prompt="" v:val="VT0(0.1625):1"/>
				<v:ud v:nameU="BotRightOffset" v:prompt="" v:val="VT0(0.1625):1"/>
			</v:userDefs>
			<v:textBlock v:margins="rect(4,4,4,4)"/>
			<v:textRect cx="58.5" cy="599.625" width="117" height="24.75"/>
			<path d="M11.7 612 L105.3 612 A11.6998 11.6998 -180 0 0 117 600.3 L117 598.95 A11.6998 11.6998 -180 0 0 105.3 587.25
						 L11.7 587.25 A11.6998 11.6998 -180 0 0 -0 598.95 L0 600.3 A11.6998 11.6998 -180 0 0 11.7 612 Z"
					class="st3"/>
			<text x="47.5" y="602.63" class="st19" v:langID="1033"><v:paragraph v:horizAlign="1"/><v:tabList/>Zelda</text>		</g>
		<g id="shape52-123" v:mID="52" v:groupContext="shape" transform="translate(66.4773,-238.641)">
			<title>Rounded Rectangle.52</title>
			<desc>Madden</desc>
			<v:userDefs>
				<v:ud v:nameU="CTypeTopLeftSnip" v:prompt="" v:val="VT0(0):5"/>
				<v:ud v:nameU="CTypeTopRightSnip" v:prompt="" v:val="VT0(0):5"/>
				<v:ud v:nameU="CTypeBotLeftSnip" v:prompt="" v:val="VT0(0):5"/>
				<v:ud v:nameU="CTypeBotRightSnip" v:prompt="" v:val="VT0(0):5"/>
				<v:ud v:nameU="CornerLockHoriz" v:prompt="" v:val="VT0(1):5"/>
				<v:ud v:nameU="CornerLockVert" v:prompt="" v:val="VT0(1):5"/>
				<v:ud v:nameU="CornerLockDiag" v:prompt="" v:val="VT0(0):5"/>
				<v:ud v:nameU="TopLeftOffset" v:prompt="" v:val="VT0(0.15):1"/>
				<v:ud v:nameU="TopRightOffset" v:prompt="" v:val="VT0(0.15):1"/>
				<v:ud v:nameU="BotLeftOffset" v:prompt="" v:val="VT0(0.15):1"/>
				<v:ud v:nameU="BotRightOffset" v:prompt="" v:val="VT0(0.15):1"/>
				<v:ud v:nameU="visVersion" v:prompt="" v:val="VT0(15):26"/>
				<v:ud v:nameU="TopLeftOffset" v:prompt="" v:val="VT0(0.1625):1"/>
				<v:ud v:nameU="TopRightOffset" v:prompt="" v:val="VT0(0.1625):1"/>
				<v:ud v:nameU="BotLeftOffset" v:prompt="" v:val="VT0(0.1625):1"/>
				<v:ud v:nameU="BotRightOffset" v:prompt="" v:val="VT0(0.1625):1"/>
			</v:userDefs>
			<v:textBlock v:margins="rect(4,4,4,4)"/>
			<v:textRect cx="58.5" cy="599.625" width="117" height="24.75"/>
			<path d="M11.7 612 L105.3 612 A11.6998 11.6998 -180 0 0 117 600.3 L117 598.95 A11.6998 11.6998 -180 0 0 105.3 587.25
						 L11.7 587.25 A11.6998 11.6998 -180 0 0 -0 598.95 L0 600.3 A11.6998 11.6998 -180 0 0 11.7 612 Z"
					class="st3"/>
			<text x="41.46" y="602.63" class="st19" v:langID="1033"><v:paragraph v:horizAlign="1"/><v:tabList/>Madden</text>		</g>
		<g id="group53-126" transform="translate(56.25,223.002) rotate(-90)" v:mID="53" v:groupContext="group">
			<v:userDefs>
				<v:ud v:nameU="visVersion" v:val="VT0(15):26"/>
				<v:ud v:nameU="Scale" v:val="VT0(1):26"/>
				<v:ud v:nameU="AntiScale" v:val="VT0(1):26"/>
			</v:userDefs>
			<title>Annotation</title>
			<g id="shape54-127" v:mID="54" v:groupContext="shape" transform="translate(-473.598,911.7) rotate(-126.87)">
				<title>Sheet.54</title>
				<path d="M90 612 L0 612" class="st20"/>
			</g>
			<g id="shape55-130" v:mID="55" v:groupContext="shape" transform="translate(612,544.5) rotate(90)">
				<title>Sheet.55</title>
				<desc>Name Sales , Year</desc>
				<v:textBlock v:margins="rect(4,4,4,4)"/>
				<v:textRect cx="33.75" cy="595.998" width="67.5" height="32.0037"/>
				<path d="M16.87 580 L0 580 L0 612 L16.87 612" class="st11"/>
				<text x="21.65" y="593" class="st21" v:langID="1033"><v:paragraph v:horizAlign="1"/><v:tabList/>Name<v:lf/><tspan
							x="10.9" dy="1.2em" class="st22">Sales </tspan>, Year</text>			</g>
		</g>
	</g>
</svg>
